<?xml version="1.0" encoding="UTF-8"?>
<svg version="1.1" xmlns="http://www.w3.org/2000/svg" width="480" height="480">
<path d="M0 0 C158.4 0 316.8 0 480 0 C480 158.4 480 316.8 480 480 C321.6 480 163.2 480 0 480 C0 321.6 0 163.2 0 0 Z " fill="#0B0C27" transform="translate(0,0)"/>
<path d="M0 0 C43.56 0 87.12 0 132 0 C128.87279873 3.12720127 125.74243322 6.24997427 122.6015625 9.36328125 C120.94264302 11.01295516 119.28379068 12.66269658 117.625 14.3125 C116.3875 15.53743164 116.3875 15.53743164 115.125 16.78710938 C110.19967292 21.6928915 105.51278019 26.71431644 101 32 C99.9076868 33.24995496 98.81394859 34.49866616 97.71875 35.74609375 C92.35632981 41.88869543 87.04286895 48.01168851 82.171875 54.55859375 C81.78515625 55.03425781 81.3984375 55.50992188 81 56 C80.67 56 80.34 56 80 56 C79.8125 53.625 79.8125 53.625 80 51 C80.99 50.34 81.98 49.68 83 49 C84.13179527 47.16599599 85.18834019 45.28450541 86.1875 43.375 C86.71730469 42.37210938 87.24710937 41.36921875 87.79296875 40.3359375 C88.19128906 39.56507812 88.58960938 38.79421875 89 38 C90.98 38.495 90.98 38.495 93 39 C92.9175 38.278125 92.835 37.55625 92.75 36.8125 C93.08623081 33.02990343 94.36808993 31.70117086 97 29 C98.03125 28.34 99.0625 27.68 100.125 27 C103.23709182 24.83506656 104.00423283 23.58476181 105 20 C106.98 20.495 106.98 20.495 109 21 C108.505 19.515 108.505 19.515 108 18 C108.66 18 109.32 18 110 18 C110 17.34 110 16.68 110 16 C110.66 15.34 111.32 14.68 112 14 C112.66 13.01 113.32 12.02 114 11 C114 11.66 114 12.32 114 13 C114.66 12.67 115.32 12.34 116 12 C116 10.68 116 9.36 116 8 C117.32 8 118.64 8 120 8 C120 6.68 120 5.36 120 4 C120.66 4 121.32 4 122 4 C121.505 3.01 121.505 3.01 121 2 C81.07 1.67 41.14 1.34 0 1 C0 0.67 0 0.34 0 0 Z " fill="#202A47" transform="translate(184,0)"/>
<path d="M0 0 C41.25 0 82.5 0 125 0 C124.875 30.6875 124.875 30.6875 124.81982422 40.2331543 C124.76947262 55.25325833 125.04639082 70.08439344 127 85 C127.09884491 85.75633728 127.19768982 86.51267456 127.29953003 87.29193115 C127.71963218 90.45641638 128.16104444 93.61622045 128.6328125 96.7734375 C129.02367277 100.2080182 129.06120624 103.54621938 129 107 C127.09723836 104.14585754 126.67313579 103.10568838 126.21875 99.87890625 C126.09999512 99.0389209 125.98124023 98.19893555 125.85888672 97.33349609 C125.7404541 96.41906738 125.62202148 95.50463867 125.5 94.5625 C125.37254395 93.61197754 125.24508789 92.66145508 125.11376953 91.68212891 C123.91004287 82.21473524 123.23759839 72.71647553 122.64648438 63.19360352 C122.57494141 62.05463623 122.50339844 60.91566895 122.4296875 59.7421875 C122.37022949 58.7301123 122.31077148 57.71803711 122.24951172 56.67529297 C122.03062589 54.32837428 121.57038953 52.27516558 121 50 C120.92233916 48.55901569 120.89203633 47.11491371 120.90234375 45.671875 C120.90717773 44.47304687 120.90717773 44.47304687 120.91210938 43.25 C120.92467773 42.0125 120.92467773 42.0125 120.9375 40.75 C120.94201172 39.90953125 120.94652344 39.0690625 120.95117188 38.203125 C120.96292039 36.13538599 120.98085478 34.06768376 121 32 C120.67 32 120.34 32 120 32 C119.75 24.5 119.75 24.5 122 20 C122.33 13.73 122.66 7.46 123 1 C82.41 1 41.82 1 0 1 C0 0.67 0 0.34 0 0 Z " fill="#202C4B" transform="translate(0,0)"/>
<path d="M0 0 C0.99 0.33 1.98 0.66 3 1 C2.98839844 1.84820312 2.97679687 2.69640625 2.96484375 3.5703125 C2.95582031 4.74335938 2.94679688 5.91640625 2.9375 7.125 C2.92589844 8.26195312 2.91429687 9.39890625 2.90234375 10.5703125 C2.9301779 14.20834834 3.20637396 17.80428868 3.49780273 21.43017578 C4.01063922 28.47971484 4.14528889 35.48101532 4.1328125 42.546875 C4.13376923 43.7653009 4.13472595 44.98372681 4.13571167 46.23907471 C4.13638597 48.78340711 4.13458463 51.32774131 4.13037109 53.87207031 C4.12495576 57.78193944 4.13036998 61.69169661 4.13671875 65.6015625 C4.13605893 68.08333359 4.13477976 70.5651046 4.1328125 73.046875 C4.13483673 74.21756531 4.13686096 75.38825562 4.13894653 76.59442139 C4.13579437 77.67024475 4.13264221 78.74606812 4.12939453 79.85449219 C4.12859894 80.80265808 4.12780334 81.75082397 4.12698364 82.72772217 C4 85 4 85 3 87 C42.93 87 82.86 87 124 87 C124 87.33 124 87.66 124 88 C83.41 88 42.82 88 1 88 C1.0625 57.5 1.0625 57.5 1.09008789 48.03710938 C1.11652342 32.00080576 0.87015274 16.01747809 0 0 Z " fill="#1D2A49" transform="translate(356,392)"/>
<path d="M0 0 C-11.18642599 3.0778295 -22.33578685 5.14242586 -33.82983398 6.70239258 C-35.78720674 6.97081843 -37.74150875 7.2614104 -39.6953125 7.5546875 C-43.93028802 8.12535796 -48.16181347 8.3696427 -52.42578125 8.62109375 C-55.15973599 8.76200426 -55.15973599 8.76200426 -57 11 C-60.28654451 11.18603082 -63.22231945 11.17946474 -66.4375 10.4375 C-69.37197512 9.93649205 -71.88684906 10.36032747 -74.81497192 10.75311279 C-78.19427731 11.13494188 -81.56900098 11.14295997 -84.96484375 11.1328125 C-86.04301109 11.13424759 -86.04301109 11.13424759 -87.14295959 11.13571167 C-88.64454233 11.13638622 -90.1461281 11.13458309 -91.64770508 11.13037109 C-93.955957 11.12495671 -96.26401921 11.13036869 -98.57226562 11.13671875 C-100.03645876 11.13605892 -101.50065178 11.13477973 -102.96484375 11.1328125 C-103.65642075 11.13483673 -104.34799774 11.13686096 -105.06053162 11.13894653 C-109.88501034 11.11498966 -109.88501034 11.11498966 -111 10 C-114.26422335 9.7131854 -117.52864491 9.55112395 -120.80078125 9.37890625 C-123.80255927 9.02338431 -125.40328282 8.40841883 -128 7 C-126.8772467 7.00666183 -126.8772467 7.00666183 -125.73181152 7.01345825 C-118.55781727 7.05411007 -111.38388149 7.08426894 -104.20980072 7.10362434 C-100.52458142 7.11391065 -96.8394599 7.127779 -93.15429688 7.15087891 C-68.68447727 7.29974449 -44.87244671 6.24046305 -20.75 1.8125 C-18.38547784 1.38203695 -16.02055972 0.95501707 -13.65362549 0.53800964 C-12.20976187 0.28344304 -10.76719892 0.02133495 -9.32635498 -0.24980164 C-5.9454348 -0.84789397 -3.26324719 -1.21412296 0 0 Z " fill="#20304E" transform="translate(128,349)"/>
<path d="M0 0 C0 3 0 3 -1.2421875 4.39453125 C-2.32389396 5.33390791 -3.40720992 6.27143464 -4.4921875 7.20703125 C-6.55496626 9.43632967 -6.55496626 9.43632967 -8 15 C41.17 15 90.34 15 141 15 C141 15.33 141 15.66 141 16 C89.19 16 37.38 16 -16 16 C-8.43478261 7.17391304 -8.43478261 7.17391304 -6 5 C-5.34 5 -4.68 5 -4 5 C-3.71125 4.360625 -3.4225 3.72125 -3.125 3.0625 C-2 1 -2 1 0 0 Z " fill="#1C1F3B" transform="translate(183,464)"/>
<path d="M0 0 C2.39490986 0.06970052 4.79167691 0.08448003 7.1875 0.0625 C8.45980469 0.05347656 9.73210937 0.04445313 11.04296875 0.03515625 C12.01878906 0.02355469 12.99460937 0.01195313 14 0 C14 0.99 14 1.98 14 3 C13.26260086 2.99333817 12.52520172 2.98667633 11.76545715 2.97981262 C4.66662369 2.91860668 -2.43211195 2.87348794 -9.53113842 2.84456348 C-13.17704598 2.82919136 -16.8227281 2.80850692 -20.46850586 2.77368164 C-43.90969346 2.55597626 -66.60149236 4.04155648 -89.8177948 7.61921692 C-92.91373849 7.98967794 -95.8855393 8.06755534 -99 8 C-99 7.67 -99 7.34 -99 7 C-91.92982932 4.70580176 -85.29212033 3.63683445 -77.8762207 3.26538086 C-74.2327715 3.01593642 -70.69112913 2.56535757 -67.078125 2.04296875 C-55.91711142 0.55360738 -44.67863106 0.29105516 -33.4375 -0.125 C-31.25713794 -0.2116498 -29.07679909 -0.29888578 -26.89648438 -0.38671875 C-3.88422796 -1.29474265 -3.88422796 -1.29474265 0 0 Z " fill="#202F4D" transform="translate(466,121)"/>
<path d="M0 0 C3.31960176 1.10653392 3.99488215 1.90032584 6.16015625 4.52734375 C10.04101449 9.09899272 14.18741709 13.33536983 18.4375 17.5625 C19.14970703 18.27857422 19.86191406 18.99464844 20.59570312 19.73242188 C25.23276523 24.36106061 30.01728268 28.74724722 35 33 C35.5664624 33.48815186 36.1329248 33.97630371 36.71655273 34.47924805 C42.9889862 39.87457604 49.29907293 45.1385431 56 50 C53.10765685 50.82638376 51.11257569 51 48 51 C48 49.35 48 47.7 48 46 C47.0925 45.773125 46.185 45.54625 45.25 45.3125 C41.52370133 43.80764861 40.30556384 42.21132106 38 39 C37.01 38.505 37.01 38.505 36 38 C36 37.34 36 36.68 36 36 C35.071875 35.7525 34.14375 35.505 33.1875 35.25 C29.61914178 33.85064383 29.0276097 33.12589829 27 30 C24.31998116 26.56769517 21.94931626 23.56958976 18.1875 21.3125 C16 20 16 20 15.1875 17.8125 C15.125625 17.214375 15.06375 16.61625 15 16 C14.34 16 13.68 16 13 16 C10.875 14.125 10.875 14.125 9 12 C9 11.34 9 10.68 9 10 C7.68 9.67 6.36 9.34 5 9 C5 9.66 5 10.32 5 11 C3.35 10.67 1.7 10.34 0 10 C0 6.7 0 3.4 0 0 Z " fill="#21334D" transform="translate(0,165)"/>
<path d="M0 0 C6.6042841 1.59413754 6.6042841 1.59413754 9.4375 4.5 C12.02976532 7.02903934 12.72193814 7.2351189 16 8 C17.02323436 9.31558703 18.01755155 10.65368175 19 12 C20.82036861 13.59588369 22.68316762 15.12153768 24.57421875 16.6328125 C25.27998047 17.30957031 25.27998047 17.30957031 26 18 C26 18.66 26 19.32 26 20 C32.6842272 23.65890508 32.6842272 23.65890508 40 25 C40.495 28.465 40.495 28.465 41 32 C42.65 32.33 44.3 32.66 46 33 C46.66 35.31 47.32 37.62 48 40 C44.16165337 37.8940045 41.33817552 35.52909978 38.3125 32.375 C35.4554665 29.28109484 35.4554665 29.28109484 32 27 C32 26.34 32 25.68 32 25 C31.44183594 24.7525 30.88367188 24.505 30.30859375 24.25 C27.58647484 22.77609467 25.43098027 20.9945097 23.0625 19 C18.27501696 15.01686559 13.39600087 11.19096262 8.41625977 7.45117188 C5.38274189 5.15089186 2.62201174 2.76100995 0 0 Z " fill="#1A2442" transform="translate(416,256)"/>
<path d="M0 0 C0.99 0.33 1.98 0.66 3 1 C2.01 2.485 2.01 2.485 1 4 C1 4.99 1 5.98 1 7 C-0.43359375 8.65625 -0.43359375 8.65625 -2.4375 10.5 C-8.31852325 16.16320757 -13.25774462 22.53049108 -18.3125 28.92578125 C-19.034375 29.83714844 -19.75625 30.74851562 -20.5 31.6875 C-21.1496875 32.51636719 -21.799375 33.34523437 -22.46875 34.19921875 C-22.9740625 34.79347656 -23.479375 35.38773438 -24 36 C-24.33 36 -24.66 36 -25 36 C-25.1875 33.625 -25.1875 33.625 -25 31 C-24.01 30.34 -23.02 29.68 -22 29 C-20.86820473 27.16599599 -19.81165981 25.28450541 -18.8125 23.375 C-18.28269531 22.37210938 -17.75289063 21.36921875 -17.20703125 20.3359375 C-16.80871094 19.56507812 -16.41039062 18.79421875 -16 18 C-14.68 18.33 -13.36 18.66 -12 19 C-12.0825 18.278125 -12.165 17.55625 -12.25 16.8125 C-11.91376919 13.02990343 -10.63191007 11.70117086 -8 9 C-6.96875 8.34 -5.9375 7.68 -4.875 7 C-1.76290818 4.83506656 -0.99576717 3.58476181 0 0 Z " fill="#121F3F" transform="translate(289,20)"/>
<path d="M0 0 C-11.18642599 3.0778295 -22.33578685 5.14242586 -33.82983398 6.70239258 C-35.78720674 6.97081843 -37.74150875 7.2614104 -39.6953125 7.5546875 C-43.93028802 8.12535796 -48.16181347 8.3696427 -52.42578125 8.62109375 C-55.15973599 8.76200426 -55.15973599 8.76200426 -57 11 C-61.23963281 11.31404687 -64.36534398 11.32617985 -68 9 C-65.1103457 7.3704834 -62.92938757 6.73178466 -59.625 6.578125 C-58.7390918 6.52503174 -57.85318359 6.47193848 -56.94042969 6.41723633 C-55.97008789 6.36204834 -54.99974609 6.30686035 -54 6.25 C-41.14998823 5.38365001 -28.59814822 3.23194384 -15.9375 0.94433594 C-15.17657043 0.80970444 -14.41564087 0.67507294 -13.63165283 0.53636169 C-12.19602941 0.28180173 -10.76163043 0.02019992 -9.32879639 -0.24961853 C-5.94707386 -0.84742154 -3.26406421 -1.21442694 0 0 Z " fill="#182341" transform="translate(128,349)"/>
<path d="M0 0 C0 3 0 3 -1.2421875 4.39453125 C-2.32389396 5.33390791 -3.40720992 6.27143464 -4.4921875 7.20703125 C-6.55496626 9.43632967 -6.55496626 9.43632967 -8 15 C5.53 15 19.06 15 33 15 C33 15.33 33 15.66 33 16 C16.83 16 0.66 16 -16 16 C-8.43478261 7.17391304 -8.43478261 7.17391304 -6 5 C-5.34 5 -4.68 5 -4 5 C-3.71125 4.360625 -3.4225 3.72125 -3.125 3.0625 C-2 1 -2 1 0 0 Z " fill="#1C294C" transform="translate(183,464)"/>
<path d="M0 0 C0.886875 0.763125 1.77375 1.52625 2.6875 2.3125 C4.12456082 3.54218009 5.56214687 4.77124643 7 6 C7.48791016 6.41813965 7.97582031 6.8362793 8.47851562 7.26708984 C14.84541353 12.71860041 21.21061546 18.07436808 28 23 C25.10765685 23.82638376 23.11257569 24 20 24 C20 22.35 20 20.7 20 19 C18.63875 18.6596875 18.63875 18.6596875 17.25 18.3125 C13.52370133 16.80764861 12.30556384 15.21132106 10 12 C9.34 11.67 8.68 11.34 8 11 C8 10.34 8 9.68 8 9 C7.071875 8.7525 6.14375 8.505 5.1875 8.25 C1.83357085 6.93473367 0.63167477 6.16736868 -1 3 C-0.67 2.01 -0.34 1.02 0 0 Z " fill="#182241" transform="translate(28,192)"/>
<path d="M0 0 C-0.99 2.31 -1.98 4.62 -3 7 C-4.3303125 6.814375 -4.3303125 6.814375 -5.6875 6.625 C-8.91796899 6.65916175 -8.91796899 6.65916175 -10.44140625 8.3359375 C-11.65021551 9.87310987 -12.82667876 11.43557168 -14 13 C-14.66 13 -15.32 13 -16 13 C-16.33 13.99 -16.66 14.98 -17 16 C-18.32 15.34 -19.64 14.68 -21 14 C-18.84200723 11.63783033 -16.64440219 9.31646471 -14.4375 7 C-13.82841797 6.33226562 -13.21933594 5.66453125 -12.59179688 4.9765625 C-8.49764216 0.73077243 -6.19398803 -0.8928271 0 0 Z " fill="#070216" transform="translate(321,1)"/>
<path d="M0 0 C1.05525267 3.16575801 1.17685074 3.99639587 0 7 C-1.62890625 8.59765625 -1.62890625 8.59765625 -3.5625 10.0625 C-5.49174728 11.46192868 -5.49174728 11.46192868 -7 13 C-7 13.99 -7 14.98 -7 16 C-8.6875 17.875 -8.6875 17.875 -11 20 C-13.73490902 22.66478315 -16.30446846 25.33371057 -18.6875 28.3125 C-19.450625 29.199375 -20.21375 30.08625 -21 31 C-21.66 31 -22.32 31 -23 31 C-21.58565017 26.64755328 -19.47177741 24.08789174 -16.3125 20.8125 C-12.16389974 16.3937304 -8.66434301 11.88503018 -5.375 6.80078125 C-4.92125 6.20652344 -4.4675 5.61226563 -4 5 C-3.34 5 -2.68 5 -2 5 C-1.34 3.35 -0.68 1.7 0 0 Z " fill="#18223F" transform="translate(223,416)"/>
<path d="M0 0 C1.5312977 3.0625954 1.04905767 4.78726088 0 8 C-2.31808364 9.03485877 -4.65175298 10.0355414 -7 11 C-8.05167527 13.57732914 -8.05167527 13.57732914 -8 16 C-10.31 16.33 -12.62 16.66 -15 17 C-12.35879642 11.71759283 -8.19010482 8.04534112 -4 4 C-2.66435386 2.66898349 -1.33035383 1.33630619 0 0 Z " fill="#1C2A49" transform="translate(199,447)"/>
<path d="M0 0 C0.33 0 0.66 0 1 0 C1.06058594 0.85464844 1.12117188 1.70929687 1.18359375 2.58984375 C1.26738281 3.69457031 1.35117188 4.79929687 1.4375 5.9375 C1.51871094 7.03964844 1.59992188 8.14179688 1.68359375 9.27734375 C1.70418084 11.91109903 1.70418084 11.91109903 3 13 C3.08631874 14.34267413 3.10706473 15.68974322 3.09765625 17.03515625 C3.09443359 17.84404297 3.09121094 18.65292969 3.08789062 19.48632812 C3.07951172 20.33646484 3.07113281 21.18660156 3.0625 22.0625 C3.05798828 22.91650391 3.05347656 23.77050781 3.04882812 24.65039062 C3.03700373 26.76695663 3.01906769 28.88348685 3 31 C2.34 31.33 1.68 31.66 1 32 C-0.46098845 29.0780231 -0.11134901 26.50106525 -0.09765625 23.2421875 C-0.0962413 22.57913605 -0.09482635 21.91608459 -0.09336853 21.23294067 C-0.08776754 19.11358137 -0.075215 16.99432741 -0.0625 14.875 C-0.05748512 13.43880361 -0.05292219 12.00260556 -0.04882812 10.56640625 C-0.03779782 7.04423655 -0.02053259 3.52212855 0 0 Z " fill="#060213" transform="translate(124,20)"/>
<path d="M0 0 C0.68707555 2.49064888 1 4.37886292 1 7 C0.38125 7.2475 -0.2375 7.495 -0.875 7.75 C-3.44102972 9.25942925 -3.72868136 10.3581148 -5 13 C-5.94517132 14.41907337 -6.92564037 15.81518147 -7.9375 17.1875 C-8.69353516 18.22970703 -8.69353516 18.22970703 -9.46484375 19.29296875 C-11 21 -11 21 -14 22 C-12.33383155 16.73786039 -9.06931631 12.60840413 -5.875 8.1875 C-5.31167969 7.39923828 -4.74835938 6.61097656 -4.16796875 5.79882812 C-2.78322342 3.86253169 -1.39381373 1.92977359 0 0 Z " fill="#151C38" transform="translate(239,393)"/>
<path d="M0 0 C0.33 0 0.66 0 1 0 C1.049377 4.52065428 1.08570823 9.04115217 1.10986328 13.56201172 C1.11993118 15.10045098 1.13358646 16.63887107 1.15087891 18.17724609 C1.17509317 20.38644133 1.18647491 22.59538395 1.1953125 24.8046875 C1.20563507 25.49432587 1.21595764 26.18396423 1.22659302 26.89450073 C1.22699478 28.59800906 1.12191026 30.30085943 1 32 C0.34 32.66 -0.32 33.32 -1 34 C-1 26.74 -1 19.48 -1 12 C-1.33 12 -1.66 12 -2 12 C-2.28571429 3.42857143 -2.28571429 3.42857143 0 0 Z " fill="#142549" transform="translate(122,20)"/>
<path d="M0 0 C0 4.15628691 -2.24943193 6.21839822 -4.75 9.3125 C-8.03637618 13.43480035 -11.13318796 17.57251692 -14 22 C-15 19 -15 19 -15 16 C-14.401875 15.79375 -13.80375 15.5875 -13.1875 15.375 C-10.18698873 13.48896435 -9.45425063 11.17291047 -8 8 C-7.34 7.34 -6.68 6.68 -6 6 C-5.34 5.154375 -4.68 4.30875 -4 3.4375 C-2 1 -2 1 0 0 Z " fill="#161F3B" transform="translate(263,56)"/>
<path d="M0 0 C0.66 0.33 1.32 0.66 2 1 C0.68 3.31 -0.64 5.62 -2 8 C-2.66 8 -3.32 8 -4 8 C-4.11601562 8.56589844 -4.23203125 9.13179687 -4.3515625 9.71484375 C-5.0683627 12.24091673 -6.09574282 14.27146668 -7.375 16.5625 C-7.79523438 17.32691406 -8.21546875 18.09132813 -8.6484375 18.87890625 C-9.92958018 20.88948566 -11.24769349 22.39628088 -13 24 C-12.38935223 19.6359039 -10.78981373 16.35349156 -8.6875 12.5 C-7.79611328 10.84484375 -7.79611328 10.84484375 -6.88671875 9.15625 C-4.89595154 5.82593964 -2.75156938 2.75156938 0 0 Z " fill="#131A36" transform="translate(245,80)"/>
<path d="M0 0 C2.475 0.495 2.475 0.495 5 1 C5 1.66 5 2.32 5 3 C5.99 3 6.98 3 8 3 C8 3.66 8 4.32 8 5 C8.99 4.67 9.98 4.34 11 4 C11.226875 4.61875 11.45375 5.2375 11.6875 5.875 C12.85311983 8.23871582 12.85311983 8.23871582 15.5625 9 C16.7690625 9.495 16.7690625 9.495 18 10 C18.8125 12.125 18.8125 12.125 19 14 C14.63125852 12.52221869 11.44678612 10.25012143 7.8125 7.4375 C4.07228756 4.45571326 4.07228756 4.45571326 0 2 C0 1.34 0 0.68 0 0 Z " fill="#151D3B" transform="translate(397,242)"/>
<path d="M0 0 C0.4846875 0.37511719 0.969375 0.75023437 1.46875 1.13671875 C4.97293976 3.81203285 8.47335003 6.34623188 12.25 8.625 C15.24312123 10.44561902 17.65517061 12.36206693 20 15 C19.01 15.495 19.01 15.495 18 16 C15.36514389 14.09660072 12.74403182 12.17510031 10.125 10.25 C9.37863281 9.71117187 8.63226563 9.17234375 7.86328125 8.6171875 C7.14785156 8.08867187 6.43242188 7.56015625 5.6953125 7.015625 C4.7055542 6.29294434 4.7055542 6.29294434 3.69580078 5.55566406 C1.83792036 3.85131422 0.97863422 2.30522728 0 0 Z " fill="#17203C" transform="translate(56,216)"/>
<path d="M0 0 C0.33 0 0.66 0 1 0 C1.19635974 3.45789054 1.38058252 6.91632197 1.5625 10.375 C1.61857422 11.35984375 1.67464844 12.3446875 1.73242188 13.359375 C1.78076172 14.30039062 1.82910156 15.24140625 1.87890625 16.2109375 C1.9260376 17.08024902 1.97316895 17.94956055 2.02172852 18.84521484 C2 21 2 21 1 23 C3.97 23 6.94 23 10 23 C10 23.33 10 23.66 10 24 C6.37 24 2.74 24 -1 24 C-1.09612736 15.92530211 -0.79780028 8.03498853 0 0 Z " fill="#253654" transform="translate(358,456)"/>
<path d="M0 0 C0.99 0.33 1.98 0.66 3 1 C3.0582253 4.08325358 3.09367134 7.16636505 3.125 10.25 C3.14175781 11.12269531 3.15851563 11.99539063 3.17578125 12.89453125 C3.18222656 13.73886719 3.18867188 14.58320313 3.1953125 15.453125 C3.20578613 16.22817383 3.21625977 17.00322266 3.22705078 17.80175781 C3 20 3 20 1 24 C0.67 16.08 0.34 8.16 0 0 Z " fill="#162545" transform="translate(356,392)"/>
<path d="M0 0 C2.52490791 1.08210339 4.03546037 2.03774814 5.9375 4.0625 C8.30839468 6.28970409 9.81664932 6.64629437 13 7 C13.66 9.31 14.32 11.62 15 14 C10.93396384 11.78749024 7.928496 9.16881224 4.6875 5.875 C3.80449219 4.98554688 2.92148437 4.09609375 2.01171875 3.1796875 C0 1 0 1 0 0 Z " fill="#1D2B4A" transform="translate(449,282)"/>
<path d="M0 0 C-1.60274169 1.60274169 -3.48798158 1.45064971 -5.69921875 1.75390625 C-6.66150391 1.88603516 -7.62378906 2.01816406 -8.61523438 2.15429688 C-9.62908203 2.28900391 -10.64292969 2.42371094 -11.6875 2.5625 C-12.68201172 2.70107422 -13.67652344 2.83964844 -14.70117188 2.98242188 C-19.49879287 3.63040395 -24.14575315 4.19020047 -29 4 C-29 3.67 -29 3.34 -29 3 C-20.19274624 0.14213602 -9.11337039 -2.95568769 0 0 Z " fill="#1A2440" transform="translate(396,125)"/>
<path d="M0 0 C0.99 0.66 1.98 1.32 3 2 C2.57847656 2.45890625 2.15695312 2.9178125 1.72265625 3.390625 C0.90087891 4.31101562 0.90087891 4.31101562 0.0625 5.25 C-0.48277344 5.85328125 -1.02804687 6.4565625 -1.58984375 7.078125 C-3.08368304 9.11405001 -3.41508539 10.58235296 -4 13 C-6.5625 15.75 -6.5625 15.75 -9 18 C-9.1875 15.625 -9.1875 15.625 -9 13 C-8.01 12.34 -7.02 11.68 -6 11 C-4.86820473 9.16599599 -3.81165981 7.28450541 -2.8125 5.375 C-2.28269531 4.37210938 -1.75289063 3.36921875 -1.20703125 2.3359375 C-0.80871094 1.56507812 -0.41039062 0.79421875 0 0 Z " fill="#111D3D" transform="translate(273,38)"/>
<path d="M0 0 C0.66 0 1.32 0 2 0 C0.70422042 2.79120295 -0.7157439 5.04706873 -2.71484375 7.3828125 C-3.49698242 8.29740234 -3.49698242 8.29740234 -4.29492188 9.23046875 C-4.83697266 9.85566406 -5.37902344 10.48085938 -5.9375 11.125 C-6.47568359 11.75792969 -7.01386719 12.39085937 -7.56835938 13.04296875 C-9.96907757 15.8314725 -11.90486686 17.93657791 -15 20 C-13.40875955 16.36410113 -11.1606096 13.59933476 -8.625 10.5625 C-5.16848989 6.40695814 -5.16848989 6.40695814 -1.8359375 2.15234375 C-1.23007812 1.44207031 -0.62421875 0.73179688 0 0 Z " fill="#1D2945" transform="translate(284,29)"/>
<path d="M0 0 C1.65 0 3.3 0 5 0 C1.6189962 4.13621084 -1.66590534 7.81316569 -6 11 C-6.33 9.68 -6.66 8.36 -7 7 C-5.68 7 -4.36 7 -3 7 C-3 5.68 -3 4.36 -3 3 C-2.34 3 -1.68 3 -1 3 C-0.67 2.01 -0.34 1.02 0 0 Z " fill="#112044" transform="translate(307,1)"/>
<path d="M0 0 C3.04386724 -0.08226668 5.07175348 0.02391783 8 1 C8 3.64 8 6.28 8 9 C6.84775972 8.07038578 5.70340824 7.1309875 4.5625 6.1875 C3.60537109 5.40439453 3.60537109 5.40439453 2.62890625 4.60546875 C1 3 1 3 0 0 Z " fill="#243450" transform="translate(472,304)"/>
<path d="M0 0 C2.43818936 3.65728405 2.6716692 6.93287895 3.125 11.1875 C3.21136719 11.93708984 3.29773438 12.68667969 3.38671875 13.45898438 C3.59838382 15.30517412 3.80015464 17.15249344 4 19 C2 17 2 17 1.875 13.875 C1.91625 12.92625 1.9575 11.9775 2 11 C1.01 11.33 0.02 11.66 -1 12 C-1.14285714 3.42857143 -1.14285714 3.42857143 0 0 Z " fill="#161E3C" transform="translate(129,109)"/>
<path d="M0 0 C0 3 0 3 -1.79296875 5.12109375 C-2.97826172 6.26771484 -2.97826172 6.26771484 -4.1875 7.4375 C-5.00476563 8.22898437 -5.82203125 9.02046875 -6.6640625 9.8359375 C-9.0212043 12.01964412 -11.41855036 14.08473091 -14 16 C-14.66 15.67 -15.32 15.34 -16 15 C-15.36191406 14.44570313 -14.72382813 13.89140625 -14.06640625 13.3203125 C-13.24011719 12.59585937 -12.41382813 11.87140625 -11.5625 11.125 C-10.32693359 10.04605469 -10.32693359 10.04605469 -9.06640625 8.9453125 C-6.94017845 7.16761255 -6.94017845 7.16761255 -6 5 C-5.34 5 -4.68 5 -4 5 C-3.71125 4.360625 -3.4225 3.72125 -3.125 3.0625 C-2 1 -2 1 0 0 Z " fill="#243451" transform="translate(183,464)"/>
<path d="M0 0 C2.31 1.98 4.62 3.96 7 6 C6.01 6.495 6.01 6.495 5 7 C5 7.66 5 8.32 5 9 C3.35 8.67 1.7 8.34 0 8 C0 5.36 0 2.72 0 0 Z " fill="#112045" transform="translate(0,167)"/>
<path d="M0 0 C4.62 0 9.24 0 14 0 C14 0.99 14 1.98 14 3 C9.71 3 5.42 3 1 3 C0.67 2.01 0.34 1.02 0 0 Z " fill="#182A48" transform="translate(466,121)"/>
<path d="M0 0 C0.66 0.33 1.32 0.66 2 1 C-0.97 4.96 -0.97 4.96 -4 9 C-4.99 8.34 -5.98 7.68 -7 7 C-6.67 6.01 -6.34 5.02 -6 4 C-3.9375 3.3125 -3.9375 3.3125 -2 3 C-2 2.34 -2 1.68 -2 1 C-1.34 0.67 -0.68 0.34 0 0 Z " fill="#050116" transform="translate(231,402)"/>
<path d="M0 0 C0 0.66 0 1.32 0 2 C-4.53701494 3.45184478 -8.18061476 4.23509196 -13 4 C-13.33 3.34 -13.66 2.68 -14 2 C-12.4176994 1.66179834 -10.83410625 1.32964061 -9.25 1 C-8.36828125 0.814375 -7.4865625 0.62875 -6.578125 0.4375 C-4 0 -4 0 0 0 Z " fill="#141A36" transform="translate(142,345)"/>
<path d="M0 0 C0.66 0 1.32 0 2 0 C2.433125 1.134375 2.86625 2.26875 3.3125 3.4375 C4.1478125 5.2009375 4.1478125 5.2009375 5 7 C5.99 7.33 6.98 7.66 8 8 C8.33 8.99 8.66 9.98 9 11 C7.125 10.75 7.125 10.75 5 10 C4.30062468 8.68352881 3.63270867 7.34977849 3 6 C2.01 5.67 1.02 5.34 0 5 C0 3.35 0 1.7 0 0 Z " fill="#080518" transform="translate(0,160)"/>
<path d="M0 0 C3.96 0 7.92 0 12 0 C10.68 0.33 9.36 0.66 8 1 C8 1.66 8 2.32 8 3 C5.36 2.67 2.72 2.34 0 2 C0 1.34 0 0.68 0 0 Z " fill="#060113" transform="translate(408,124)"/>
<path d="M0 0 C0.99 0.33 1.98 0.66 3 1 C3.6875 3.0625 3.6875 3.0625 4 5 C5.65 5 7.3 5 9 5 C9 5.66 9 6.32 9 7 C8.01 7.33 7.02 7.66 6 8 C4.17578125 6.78515625 4.17578125 6.78515625 2.3125 5.0625 C1.68988281 4.49660156 1.06726562 3.93070313 0.42578125 3.34765625 C-0.04472656 2.90292969 -0.51523437 2.45820313 -1 2 C-0.67 1.34 -0.34 0.68 0 0 Z " fill="#070217" transform="translate(44,203)"/>
<path d="M0 0 C0.99 0 1.98 0 3 0 C3 2.64 3 5.28 3 8 C2.01 8 1.02 8 0 8 C0 5.36 0 2.72 0 0 Z " fill="#070215" transform="translate(125,64)"/>
<path d="M0 0 C2.475 0.495 2.475 0.495 5 1 C5 1.99 5 2.98 5 4 C5.66 4 6.32 4 7 4 C7.33 4.99 7.66 5.98 8 7 C5 7 5 7 2.3125 4.625 C0 2 0 2 0 0 Z " fill="#070219" transform="translate(9,172)"/>
<path d="M0 0 C0.66 0.99 1.32 1.98 2 3 C0.75 4.5625 0.75 4.5625 -1 6 C-3.1875 5.6875 -3.1875 5.6875 -5 5 C-3.35 3.35 -1.7 1.7 0 0 Z " fill="#0F1D3D" transform="translate(198,450)"/>
<path d="M0 0 C3.7952131 1.49097658 5.61042731 3.75700849 8 7 C7.01 7 6.02 7 5 7 C0 1.53488372 0 1.53488372 0 0 Z " fill="#21314E" transform="translate(464,296)"/>
<path d="M0 0 C2.97 0.495 2.97 0.495 6 1 C6 2.98 6 4.96 6 7 C1.125 2.25 1.125 2.25 0 0 Z " fill="#111E46" transform="translate(474,304)"/>
<path d="M0 0 C0.33 0.66 0.66 1.32 1 2 C1.66 2.33 2.32 2.66 3 3 C0.69 4.98 -1.62 6.96 -4 9 C-4.33 8.34 -4.66 7.68 -5 7 C-4.34 7 -3.68 7 -3 7 C-3 6.34 -3 5.68 -3 5 C-2.34 4.34 -1.68 3.68 -1 3 C-0.67 2.01 -0.34 1.02 0 0 Z " fill="#112040" transform="translate(297,11)"/>
<path d="M0 0 C1.98 1.65 3.96 3.3 6 5 C4.125 5.625 4.125 5.625 2 6 C1.34 5.34 0.68 4.68 0 4 C0 2.68 0 1.36 0 0 Z " fill="#060112" transform="translate(464,298)"/>
<path d="M0 0 C0.66 0.33 1.32 0.66 2 1 C2 2.98 2 4.96 2 7 C0.02 5.35 -1.96 3.7 -4 2 C-2.125 0.9375 -2.125 0.9375 0 0 Z " fill="#0D1C3E" transform="translate(454,280)"/>
<path d="M0 0 C3.96 0 7.92 0 12 0 C11.67 0.99 11.34 1.98 11 3 C10.01 3 9.02 3 8 3 C8 2.34 8 1.68 8 1 C5.36 1 2.72 1 0 1 C0 0.67 0 0.34 0 0 Z " fill="#06071D" transform="translate(421,123)"/>
<path d="M0 0 C-0.99 1.485 -0.99 1.485 -2 3 C-3.32 2.67 -4.64 2.34 -6 2 C-6 1.34 -6 0.68 -6 0 C-3.50907189 -1.24546405 -2.58919267 -0.7767578 0 0 Z " fill="#0F1634" transform="translate(162,341)"/>
<path d="M0 0 C2.31 0 4.62 0 7 0 C7.33 1.32 7.66 2.64 8 4 C2.25 2.25 2.25 2.25 0 0 Z " fill="#111531" transform="translate(364,224)"/>
<path d="M0 0 C1.32 1.32 2.64 2.64 4 4 C1.07175348 4.97608217 -0.95613276 5.08226668 -4 5 C-3.67 4.34 -3.34 3.68 -3 3 C-2.01 3 -1.02 3 0 3 C0 2.01 0 1.02 0 0 Z " fill="#101E3F" transform="translate(20,187)"/>
</svg>
